# xmcd
#
# Track frame offsets:
#	150
#	16230
#	40004
#	54082
#	69918
#	85386
#	99643
#	140594
#	154165
#	171576
#	183621
#	211309
#	225389
#	236322
#	253475
#
# Disc length: 3879 seconds
#
# Revision: 0
# Processed by: cddbd v1.5.2PL0 Copyright (c) Steve Scherf et al.
# Submitted via: dBpowerAMP V4.0
#
DISCID=c70f250f
DTITLE=Mizz Percy - Evil Woman
DYEAR=2008
DGENRE=Blues
TTITLE0=See See Baby
TTITLE1=Honey Hush
TTITLE2=Evil Woman
TTITLE3=Shut Your Mouth
TTITLE4=I Believe to My Soul
TTITLE5=Seventh Son
TTITLE6=How Blue Can You Get
TTITLE7=Good Morning Little Schoolgirl
TTITLE8=Don't Over React
TTITLE9=Help Me
TTITLE10=If Trouble was Money
TTITLE11=Evening Sun
TTITLE12=Alimony Blues
TTITLE13=Divin' Duck
TTITLE14=Lights Are On But Nobody's Home
EXTD=
EXTT0=
EXTT1=
EXTT2=
EXTT3=
EXTT4=
EXTT5=
EXTT6=
EXTT7=
EXTT8=
EXTT9=
EXTT10=
EXTT11=
EXTT12=
EXTT13=
EXTT14=
PLAYORDER=
